<svg width="48" height="48" viewBox="0 0 48 48" fill="none" xmlns="http://www.w3.org/2000/svg">
<path fill-rule="evenodd" clip-rule="evenodd" d="M33.8127 21.0641C33.8127 21.0641 33.997 22 34.0599 22.009C37.4537 22.4929 40 24.4725 40 28C40 31.866 36.866 35 33 35H15C11.134 35 8 31.866 8 28C8 24.4725 10.6092 21.5544 14.003 21.0705C14.0659 21.0615 14.1275 21.0596 14.1873 21.0641C15.0889 16.4677 19.1395 13 24 13C28.8605 13 32.9111 16.4677 33.8127 21.0641Z" fill="#F3F3F3"/>
<path d="M33 35H33.4118C37.0503 35 40 32.1272 40 28.5833C40 25.3383 37.5268 22.6559 34.3161 22.2266C33.8697 17.0587 29.4215 13 24 13C19.2043 13 15.1702 16.1758 13.9938 20.486C10.5718 21.1766 8 24.1291 8 27.6667C8 31.5434 11.0886 34.7175 15 34.9822" stroke="#231815" stroke-width="2" stroke-linecap="round" stroke-linejoin="round"/>
<path d="M21 34.5C21 35.3284 20.3284 36 19.5 36C18.6716 36 18 35.3284 18 34.5C18 33.6716 18.6716 33 19.5 33C20.3284 33 21 33.6716 21 34.5Z" fill="#231815"/>
<path d="M25.5 36.5C25.5 37.3284 24.8284 38 24 38C23.1716 38 22.5 37.3284 22.5 36.5C22.5 35.6716 23.1716 35 24 35C24.8284 35 25.5 35.6716 25.5 36.5Z" fill="#231815"/>
<path d="M25.5 31.5C25.5 32.3284 24.8284 33 24 33C23.1716 33 22.5 32.3284 22.5 31.5C22.5 30.6716 23.1716 30 24 30C24.8284 30 25.5 30.6716 25.5 31.5Z" fill="#231815"/>
<path d="M30 34.5C30 35.3284 29.3284 36 28.5 36C27.6716 36 27 35.3284 27 34.5C27 33.6716 27.6716 33 28.5 33C29.3284 33 30 33.6716 30 34.5Z" fill="#231815"/>
<path d="M21 38.5C21 39.3284 20.3284 40 19.5 40C18.6716 40 18 39.3284 18 38.5C18 37.6716 18.6716 37 19.5 37C20.3284 37 21 37.6716 21 38.5Z" fill="#231815"/>
<path d="M30 38.5C30 39.3284 29.3284 40 28.5 40C27.6716 40 27 39.3284 27 38.5C27 37.6716 27.6716 37 28.5 37C29.3284 37 30 37.6716 30 38.5Z" fill="#231815"/>
</svg>
