<svg width="48" height="48" viewBox="0 0 48 48" fill="none" xmlns="http://www.w3.org/2000/svg">
<path fill-rule="evenodd" clip-rule="evenodd" d="M33.8127 21.0641C33.8127 21.0641 33.997 22 34.0599 22.009C37.4537 22.4929 40 24.4725 40 28C40 31.866 36.866 35 33 35H15C11.134 35 8 31.866 8 28C8 24.4725 10.6092 21.5544 14.003 21.0705C14.0659 21.0615 14.1275 21.0596 14.1873 21.0641C15.0889 16.4677 19.1395 13 24 13C28.8605 13 32.9111 16.4677 33.8127 21.0641Z" fill="#F3F3F3"/>
<path d="M33 35H33.4118C37.0503 35 40 32.1272 40 28.5833C40 25.3383 37.5268 22.6559 34.3161 22.2266C33.8697 17.0587 29.4215 13 24 13C19.2043 13 15.1702 16.1758 13.9938 20.486C10.5718 21.1766 8 24.1291 8 27.6667C8 31.5434 11.0886 34.7175 15 34.9822" stroke="#231815" stroke-width="2" stroke-linecap="round" stroke-linejoin="round"/>
<path fill-rule="evenodd" clip-rule="evenodd" d="M28 28C26.3431 28 25 29.3431 25 31V31.2727C25 31.825 25.4477 32.2727 26 32.2727C26.5523 32.2727 27 31.825 27 31.2727V31C27 30.4477 27.4477 30 28 30C28.5523 30 29 30.4477 29 31V31.5C29 32.3284 28.3284 33 27.5 33H26.5C25.9477 33 25.5 33.4477 25.5 34C25.5 34.5523 25.9477 35 26.5 35H27.5C29.433 35 31 33.433 31 31.5V31C31 29.3431 29.6569 28 28 28ZM28.5 44C26.567 44 25 42.433 25 40.5V40C25 39.4477 25.4477 39 26 39C26.5523 39 27 39.4477 27 40V40.5C27 41.3284 27.6716 42 28.5 42C29.3284 42 30 41.3284 30 40.5V40C30 38.8954 29.1046 38 28 38H24C23.4477 38 23 37.5523 23 37C23 36.4477 23.4477 36 24 36H28C30.2091 36 32 37.7909 32 40V40.5C32 42.433 30.433 44 28.5 44Z" fill="#231815"/>
<path d="M24.9808 33.1872C24.9396 33.0676 24.8374 32.9812 24.7157 32.9633L20.9947 32.4116L22.7017 28.4818C22.7473 28.376 22.7382 28.2533 22.6769 28.1559C22.6159 28.0588 22.511 28 22.3988 28H17.2022C17.0236 28 16.8772 28.1458 16.8708 28.3297L16.6315 35.3135C16.6255 35.488 16.7481 35.6391 16.9157 35.664L19.5027 36.048L16.0414 42.4926C15.9603 42.6443 16.0015 42.8341 16.1376 42.9357C16.1962 42.9793 16.2639 43 16.3316 43C16.4214 43 16.5105 42.9623 16.5755 42.8894L24.9127 33.5332C24.9958 33.4399 25.022 33.3068 24.9808 33.1872Z" fill="#FFB900"/>
</svg>
