<svg width="49" height="48" viewBox="0 0 49 48" fill="none" xmlns="http://www.w3.org/2000/svg">
<path fill-rule="evenodd" clip-rule="evenodd" d="M41.25 17C41.25 21.5563 37.5563 25.25 33 25.25C28.4437 25.25 24.75 21.5563 24.75 17C24.75 12.4437 28.4437 8.75 33 8.75C37.5563 8.75 41.25 12.4437 41.25 17Z" stroke="#231815" stroke-width="2"/>
<g clip-path="url(#clip0_28_1306)">
<line x1="47" y1="17.25" x2="44.5" y2="17.25" stroke="#F25022" stroke-width="2" stroke-linecap="round" stroke-linejoin="round"/>
</g>
<g clip-path="url(#clip1_28_1306)">
<line x1="21.5" y1="17.25" x2="19" y2="17.25" stroke="#F25022" stroke-width="2" stroke-linecap="round" stroke-linejoin="round"/>
</g>
<g clip-path="url(#clip2_28_1306)">
<line x1="47" y1="17.25" x2="44.5" y2="17.25" stroke="#231815" stroke-width="2" stroke-linecap="round" stroke-linejoin="round"/>
</g>
<g clip-path="url(#clip3_28_1306)">
<line x1="21.5" y1="17.25" x2="19" y2="17.25" stroke="#231815" stroke-width="2" stroke-linecap="round" stroke-linejoin="round"/>
</g>
<g clip-path="url(#clip4_28_1306)">
<line x1="44.9995" y1="24.2165" x2="42.8344" y2="22.9665" stroke="#231815" stroke-width="2" stroke-linecap="round" stroke-linejoin="round"/>
</g>
<g clip-path="url(#clip5_28_1306)">
<line x1="39.7836" y1="29.2493" x2="38.5336" y2="27.0843" stroke="#231815" stroke-width="2" stroke-linecap="round" stroke-linejoin="round"/>
</g>
<g clip-path="url(#clip6_28_1306)">
<line x1="27.0336" y1="7.16571" x2="25.7836" y2="5.00065" stroke="#231815" stroke-width="2" stroke-linecap="round" stroke-linejoin="round"/>
</g>
<g clip-path="url(#clip7_28_1306)">
<line x1="32.75" y1="31" x2="32.75" y2="28.5" stroke="#231815" stroke-width="2" stroke-linecap="round" stroke-linejoin="round"/>
</g>
<g clip-path="url(#clip8_28_1306)">
<line x1="32.75" y1="5.5" x2="32.75" y2="3" stroke="#231815" stroke-width="2" stroke-linecap="round" stroke-linejoin="round"/>
</g>
<g clip-path="url(#clip9_28_1306)">
<line x1="25.7836" y1="28.9993" x2="27.0336" y2="26.8343" stroke="#231815" stroke-width="2" stroke-linecap="round" stroke-linejoin="round"/>
</g>
<g clip-path="url(#clip10_28_1306)">
<line x1="38.5336" y1="6.91571" x2="39.7836" y2="4.75065" stroke="#231815" stroke-width="2" stroke-linecap="round" stroke-linejoin="round"/>
</g>
<g clip-path="url(#clip11_28_1306)">
<line x1="20.7505" y1="23.7835" x2="22.9156" y2="22.5335" stroke="#231815" stroke-width="2" stroke-linecap="round" stroke-linejoin="round"/>
</g>
<g clip-path="url(#clip12_28_1306)">
<line x1="42.8343" y1="11.0335" x2="44.9994" y2="9.78351" stroke="#231815" stroke-width="2" stroke-linecap="round" stroke-linejoin="round"/>
</g>
<path d="M40.5 17C40.5 21.1421 37.1421 24.5 33 24.5C28.8579 24.5 25.5 21.1421 25.5 17C25.5 12.8579 28.8579 9.5 33 9.5C37.1421 9.5 40.5 12.8579 40.5 17Z" fill="#FFB900"/>
<path fill-rule="evenodd" clip-rule="evenodd" d="M22.3596 14.798C22.3596 14.798 22.4978 15.5 22.5449 15.5067C25.0902 15.8697 27 17.3544 27 20C27 22.8995 24.6495 25.25 21.75 25.25H8.25C5.3505 25.25 3 22.8995 3 20C3 17.3544 4.95692 15.1658 7.50223 14.8028C7.54939 14.7961 7.59559 14.7947 7.64044 14.798C8.31666 11.3508 11.3546 8.75 15 8.75C18.6454 8.75 21.6833 11.3508 22.3596 14.798Z" fill="#F3F3F3"/>
<path d="M8.64706 25.25C5.52827 25.25 3 22.7876 3 19.75C3 17.0968 4.92887 14.8824 7.49533 14.3645C8.37762 11.1319 11.4032 8.75 15 8.75C19.0661 8.75 22.4023 11.794 22.7371 15.67C25.1451 15.9919 27 18.0037 27 20.4375C27 23.0954 24.7878 25.25 22.0588 25.25H8.64706Z" stroke="#231815" stroke-width="2" stroke-linecap="round" stroke-linejoin="round"/>
<path fill-rule="evenodd" clip-rule="evenodd" d="M33.8127 21.0641C33.8127 21.0641 33.997 22 34.0599 22.009C37.4537 22.4929 40 24.4725 40 28C40 31.866 36.866 35 33 35H15C11.134 35 8 31.866 8 28C8 24.4725 10.6092 21.5544 14.003 21.0705C14.0659 21.0615 14.1275 21.0596 14.1873 21.0641C15.0889 16.4677 19.1395 13 24 13C28.8605 13 32.9111 16.4677 33.8127 21.0641Z" fill="#F3F3F3"/>
<path d="M15.5294 35C11.371 35 8 31.7168 8 27.6667C8 24.1291 10.5718 21.1766 13.9938 20.486C15.1702 16.1758 19.2043 13 24 13C29.4215 13 33.8697 17.0587 34.3161 22.2266C37.5268 22.6559 40 25.3383 40 28.5833C40 32.1272 37.0503 35 33.4118 35H15.5294Z" stroke="#231815" stroke-width="2" stroke-linecap="round" stroke-linejoin="round"/>
<defs>
<clipPath id="clip0_28_1306">
<rect x="42.75" y="15.5" width="6" height="3" rx="1.5" fill="white"/>
</clipPath>
<clipPath id="clip1_28_1306">
<rect x="17.25" y="15.5" width="6" height="3" rx="1.5" fill="white"/>
</clipPath>
<clipPath id="clip2_28_1306">
<rect x="42.75" y="15.5" width="6" height="3" rx="1.5" fill="white"/>
</clipPath>
<clipPath id="clip3_28_1306">
<rect x="17.25" y="15.5" width="6" height="3" rx="1.5" fill="white"/>
</clipPath>
<clipPath id="clip4_28_1306">
<rect x="42.1938" y="20.5759" width="6" height="3" rx="1.5" transform="rotate(30 42.1938 20.5759)" fill="white"/>
</clipPath>
<clipPath id="clip5_28_1306">
<rect x="39.1741" y="24.6937" width="6" height="3" rx="1.5" transform="rotate(60 39.1741 24.6937)" fill="white"/>
</clipPath>
<clipPath id="clip6_28_1306">
<rect x="26.4241" y="2.61011" width="6" height="3" rx="1.5" transform="rotate(60 26.4241 2.61011)" fill="white"/>
</clipPath>
<clipPath id="clip7_28_1306">
<rect x="34.5" y="26.75" width="6" height="3" rx="1.5" transform="rotate(90 34.5 26.75)" fill="white"/>
</clipPath>
<clipPath id="clip8_28_1306">
<rect x="34.5" y="1.25" width="6" height="3" rx="1.5" transform="rotate(90 34.5 1.25)" fill="white"/>
</clipPath>
<clipPath id="clip9_28_1306">
<rect x="29.4241" y="26.1937" width="6" height="3" rx="1.5" transform="rotate(120 29.4241 26.1937)" fill="white"/>
</clipPath>
<clipPath id="clip10_28_1306">
<rect x="42.1741" y="4.11011" width="6" height="3" rx="1.5" transform="rotate(120 42.1741 4.11011)" fill="white"/>
</clipPath>
<clipPath id="clip11_28_1306">
<rect x="25.3062" y="23.1741" width="6" height="3" rx="1.5" transform="rotate(150 25.3062 23.1741)" fill="white"/>
</clipPath>
<clipPath id="clip12_28_1306">
<rect x="47.3899" y="10.4241" width="6" height="3" rx="1.5" transform="rotate(150 47.3899 10.4241)" fill="white"/>
</clipPath>
</defs>
</svg>
