<svg width="48" height="48" viewBox="0 0 48 48" fill="none" xmlns="http://www.w3.org/2000/svg">
<path fill-rule="evenodd" clip-rule="evenodd" d="M33.8127 21.0641C33.8127 21.0641 33.997 22 34.0599 22.009C37.4537 22.4929 40 24.4725 40 28C40 31.866 36.866 35 33 35H15C11.134 35 8 31.866 8 28C8 24.4725 10.6092 21.5544 14.003 21.0705C14.0659 21.0615 14.1275 21.0596 14.1873 21.0641C15.0889 16.4677 19.1395 13 24 13C28.8605 13 32.9111 16.4677 33.8127 21.0641Z" fill="#F3F3F3"/>
<path d="M33 35H33.4118C37.0503 35 40 32.1272 40 28.5833C40 25.3383 37.5268 22.6559 34.3161 22.2266C33.8697 17.0587 29.4215 13 24 13C19.2043 13 15.1702 16.1758 13.9938 20.486C10.5718 21.1766 8 24.1291 8 27.6667C8 31.5434 11.0886 34.7175 15 34.9822" stroke="#231815" stroke-width="2" stroke-linecap="round" stroke-linejoin="round"/>
<path fill-rule="evenodd" clip-rule="evenodd" d="M25.866 36.1794C25.3877 35.9032 25.2612 35.227 25.5833 34.669L27.9167 30.6276C28.2388 30.0696 28.8877 29.8411 29.366 30.1172C29.8443 30.3933 29.9709 31.0696 29.6487 31.6276L27.3154 35.669C26.9932 36.227 26.3443 36.4555 25.866 36.1794Z" fill="#231815"/>
<path fill-rule="evenodd" clip-rule="evenodd" d="M26.866 41.1794C26.3877 40.9032 26.2612 40.227 26.5833 39.669L28.9167 35.6276C29.2388 35.0696 29.8877 34.8411 30.366 35.1172C30.8443 35.3933 30.9709 36.0696 30.6487 36.6276L28.3154 40.669C27.9932 41.227 27.3443 41.4555 26.866 41.1794Z" fill="#231815"/>
<path d="M20.2735 32.4922C20.2735 32.0089 20.6652 31.6172 21.1485 31.6172C21.6317 31.6172 22.0235 32.0089 22.0235 32.4922V33.6016L22.9843 33.0469C23.4028 32.8053 23.9379 32.9487 24.1796 33.3672C24.4212 33.7857 24.2778 34.3208 23.8593 34.5625L22.8985 35.1172L23.8593 35.6719C24.2778 35.9136 24.4212 36.4487 24.1796 36.8672C23.9379 37.2857 23.4028 37.4291 22.9843 37.1875L22.0235 36.6327V37.7422C22.0235 38.2254 21.6317 38.6172 21.1485 38.6172C20.6652 38.6172 20.2735 38.2254 20.2735 37.7422V36.6327L19.3126 37.1875C18.8941 37.4291 18.359 37.2857 18.1174 36.8672C17.8758 36.4487 18.0191 35.9135 18.4376 35.6719L19.3985 35.1172L18.4376 34.5625C18.0191 34.3208 17.8757 33.7857 18.1174 33.3672C18.359 32.9487 18.8941 32.8053 19.3126 33.0469L20.2735 33.6017V32.4922Z" fill="#231815"/>
</svg>
