<svg width="48" height="48" viewBox="0 0 48 48" fill="none" xmlns="http://www.w3.org/2000/svg">
<path fill-rule="evenodd" clip-rule="evenodd" d="M33.8127 21.0641C33.8127 21.0641 33.997 22 34.0599 22.009C37.4537 22.4929 40 24.4725 40 28C40 31.866 36.866 35 33 35H15C11.134 35 8 31.866 8 28C8 24.4725 10.6092 21.5544 14.003 21.0705C14.0659 21.0615 14.1275 21.0596 14.1873 21.0641C15.0889 16.4677 19.1395 13 24 13C28.8605 13 32.9111 16.4677 33.8127 21.0641Z" fill="#F3F3F3"/>
<path d="M33 35H33.4118C37.0503 35 40 32.1272 40 28.5833C40 25.3383 37.5268 22.6559 34.3161 22.2266C33.8697 17.0587 29.4215 13 24 13C19.2043 13 15.1702 16.1758 13.9938 20.486C10.5718 21.1766 8 24.1291 8 27.6667C8 31.5434 11.0886 34.7175 15 34.9822" stroke="#231815" stroke-width="2" stroke-linecap="round" stroke-linejoin="round"/>
<path fill-rule="evenodd" clip-rule="evenodd" d="M23.2735 32.875C23.2735 32.3918 23.6652 32 24.1485 32C24.6317 32 25.0235 32.3918 25.0235 32.875V33.9845L25.9843 33.4297C26.4028 33.1881 26.9379 33.3315 27.1796 33.75C27.4212 34.1685 27.2778 34.7036 26.8593 34.9453L25.8985 35.5L26.8593 36.0547C27.2778 36.2964 27.4212 36.8315 27.1796 37.25C26.9379 37.6685 26.4028 37.8119 25.9843 37.5703L25.0235 37.0156V38.125C25.0235 38.6082 24.6317 39 24.1485 39C23.6652 39 23.2735 38.6082 23.2735 38.125V37.0155L22.3126 37.5703C21.8941 37.8119 21.359 37.6685 21.1174 37.25C20.8758 36.8315 21.0191 36.2964 21.4376 36.0547L22.3985 35.5L21.4376 34.9453C21.0191 34.7036 20.8757 34.1685 21.1174 33.75C21.359 33.3315 21.8941 33.1881 22.3126 33.4297L23.2735 33.9845V32.875Z" fill="#231815"/>
</svg>
