<svg width="42" height="42" viewBox="0 0 42 42" fill="none" xmlns="http://www.w3.org/2000/svg">
  <path fill-rule="evenodd" clip-rule="evenodd"
    d="M32 21C32 27.0751 27.0751 32 21 32C14.9249 32 10 27.0751 10 21C10 14.9249 14.9249 10 21 10C27.0751 10 32 14.9249 32 21Z"
    stroke="#231815" stroke-width="2" />
  <line x1="40" y1="21" x2="36" y2="21" stroke="#F25022" stroke-width="2" stroke-linecap="round"
    stroke-linejoin="round" />
  <line x1="6" y1="21" x2="2" y2="21" stroke="#F25022" stroke-width="2" stroke-linecap="round"
    stroke-linejoin="round" />
  <line x1="40" y1="21" x2="36" y2="21" stroke="#231815" stroke-width="2" stroke-linecap="round"
    stroke-linejoin="round" />
  <line x1="6" y1="21" x2="2" y2="21" stroke="#231815" stroke-width="2" stroke-linecap="round"
    stroke-linejoin="round" />
  <g clip-path="url(#clip0_28_1291)">
    <line x1="37.4545" y1="30.5" x2="33.9904" y2="28.5" stroke="#231815" stroke-width="2"
      stroke-linecap="round" stroke-linejoin="round" />
  </g>
  <g clip-path="url(#clip1_28_1291)">
    <line x1="8.00971" y1="13.5" x2="4.54561" y2="11.5" stroke="#231815" stroke-width="2"
      stroke-linecap="round" stroke-linejoin="round" />
  </g>
  <g clip-path="url(#clip2_28_1291)">
    <line x1="30.4999" y1="37.4545" x2="28.4999" y2="33.9904" stroke="#231815" stroke-width="2"
      stroke-linecap="round" stroke-linejoin="round" />
  </g>
  <g clip-path="url(#clip3_28_1291)">
    <line x1="13.4999" y1="8.00965" x2="11.4999" y2="4.54554" stroke="#231815" stroke-width="2"
      stroke-linecap="round" stroke-linejoin="round" />
  </g>
  <g clip-path="url(#clip4_28_1291)">
    <line x1="21" y1="40" x2="21" y2="36" stroke="#231815" stroke-width="2" stroke-linecap="round"
      stroke-linejoin="round" />
  </g>
  <g clip-path="url(#clip5_28_1291)">
    <line x1="21" y1="6" x2="21" y2="2" stroke="#231815" stroke-width="2" stroke-linecap="round"
      stroke-linejoin="round" />
  </g>
  <g clip-path="url(#clip6_28_1291)">
    <line x1="11.4999" y1="37.4545" x2="13.4999" y2="33.9904" stroke="#231815" stroke-width="2"
      stroke-linecap="round" stroke-linejoin="round" />
  </g>
  <g clip-path="url(#clip7_28_1291)">
    <line x1="28.4999" y1="8.00965" x2="30.4999" y2="4.54554" stroke="#231815" stroke-width="2"
      stroke-linecap="round" stroke-linejoin="round" />
  </g>
  <g clip-path="url(#clip8_28_1291)">
    <line x1="4.54547" y1="30.5" x2="8.00957" y2="28.5" stroke="#231815" stroke-width="2"
      stroke-linecap="round" stroke-linejoin="round" />
  </g>
  <g clip-path="url(#clip9_28_1291)">
    <line x1="33.9903" y1="13.5" x2="37.4544" y2="11.5" stroke="#231815" stroke-width="2"
      stroke-linecap="round" stroke-linejoin="round" />
  </g>
  <path
    d="M31 21C31 26.5228 26.5228 31 21 31C15.4772 31 11 26.5228 11 21C11 15.4772 15.4772 11 21 11C26.5228 11 31 15.4772 31 21Z"
    fill="#FFB900" />
  <defs>
    <clipPath id="clip0_28_1291">
      <rect x="33.2583" y="25.7679" width="8" height="4" rx="2"
        transform="rotate(30 33.2583 25.7679)" fill="white" />
    </clipPath>
    <clipPath id="clip1_28_1291">
      <rect x="3.81348" y="8.76794" width="8" height="4" rx="2"
        transform="rotate(30 3.81348 8.76794)" fill="white" />
    </clipPath>
    <clipPath id="clip2_28_1291">
      <rect x="29.2319" y="31.2583" width="8" height="4" rx="2"
        transform="rotate(60 29.2319 31.2583)" fill="white" />
    </clipPath>
    <clipPath id="clip3_28_1291">
      <rect x="12.2319" y="1.81348" width="8" height="4" rx="2"
        transform="rotate(60 12.2319 1.81348)" fill="white" />
    </clipPath>
    <clipPath id="clip4_28_1291">
      <rect x="23" y="34" width="8" height="4" rx="2" transform="rotate(90 23 34)" fill="white" />
    </clipPath>
    <clipPath id="clip5_28_1291">
      <rect x="23" width="8" height="4" rx="2" transform="rotate(90 23 0)" fill="white" />
    </clipPath>
    <clipPath id="clip6_28_1291">
      <rect x="16.2319" y="33.2583" width="8" height="4" rx="2"
        transform="rotate(120 16.2319 33.2583)" fill="white" />
    </clipPath>
    <clipPath id="clip7_28_1291">
      <rect x="33.2319" y="3.81348" width="8" height="4" rx="2"
        transform="rotate(120 33.2319 3.81348)" fill="white" />
    </clipPath>
    <clipPath id="clip8_28_1291">
      <rect x="10.7417" y="29.2321" width="8" height="4" rx="2"
        transform="rotate(150 10.7417 29.2321)" fill="white" />
    </clipPath>
    <clipPath id="clip9_28_1291">
      <rect x="40.1865" y="12.2321" width="8" height="4" rx="2"
        transform="rotate(150 40.1865 12.2321)" fill="white" />
    </clipPath>
  </defs>
</svg>
  