<svg width="48" height="48" viewBox="0 0 48 48" fill="none" xmlns="http://www.w3.org/2000/svg">
<path fill-rule="evenodd" clip-rule="evenodd" d="M33.8127 21.0641C33.8127 21.0641 33.997 22 34.0599 22.009C37.4537 22.4929 40 24.4725 40 28C40 31.866 36.866 35 33 35H15C11.134 35 8 31.866 8 28C8 24.4725 10.6092 21.5544 14.003 21.0705C14.0659 21.0615 14.1275 21.0596 14.1873 21.0641C15.0889 16.4677 19.1395 13 24 13C28.8605 13 32.9111 16.4677 33.8127 21.0641Z" fill="#F3F3F3"/>
<path d="M33 35H33.4118C37.0503 35 40 32.1272 40 28.5833C40 25.3383 37.5268 22.6559 34.3161 22.2266C33.8697 17.0587 29.4215 13 24 13C19.2043 13 15.1702 16.1758 13.9938 20.486C10.5718 21.1766 8 24.1291 8 27.6667C8 31.5434 11.0886 34.7175 15 34.9822" stroke="#231815" stroke-width="2" stroke-linecap="round" stroke-linejoin="round"/>
<path fill-rule="evenodd" clip-rule="evenodd" d="M21 29C21 27.3431 22.3431 26 24 26C25.6569 26 27 27.3431 27 29V29.5C27 31.433 25.433 33 23.5 33H17C16.4477 33 16 32.5523 16 32C16 31.4477 16.4477 31 17 31H23.5C24.3284 31 25 30.3284 25 29.5V29C25 28.4477 24.5523 28 24 28C23.4477 28 23 28.4477 23 29V29.2727C23 29.825 22.5523 30.2727 22 30.2727C21.4477 30.2727 21 29.825 21 29.2727V29ZM25 41.5C25 43.433 26.567 45 28.5 45C30.433 45 32 43.433 32 41.5V41C32 38.7909 30.2091 37 28 37H18C17.4477 37 17 37.4477 17 38C17 38.5523 17.4477 39 18 39H28C29.1046 39 30 39.8954 30 41V41.5C30 42.3284 29.3284 43 28.5 43C27.6716 43 27 42.3284 27 41.5V41C27 40.4477 26.5523 40 26 40C25.4477 40 25 40.4477 25 41V41.5ZM19 34C18.4477 34 18 34.4477 18 35C18 35.5523 18.4477 36 19 36H29C29.5523 36 30 35.5523 30 35C30 34.4477 29.5523 34 29 34H19Z" fill="#231815"/>
</svg>
